<svg width="152" height="136" viewBox="0 0 152 136" fill="none" xmlns="http://www.w3.org/2000/svg">
<rect width="152" height="136" fill="white"/>
<path d="M118.363 76.2654C117.243 74.6732 115.892 73.1082 114.385 71.5974C113.953 71.1541 113.539 70.747 113.148 70.3942C108.956 66.4725 103.85 62.976 99.3543 60.4294L99.2815 60.3978C85.8978 53.4093 66.0976 60.5878 51.8219 60.7008C50.6751 60.7189 49.6148 60.3209 48.823 59.4931C42.4747 52.6675 42.097 37.9352 44.6636 29.0923C45.0413 27.3327 45.2325 25.4872 45.1415 23.7186C45.0322 19.4622 42.7432 15.717 38.5474 14.645C34.2015 13.1885 29.5552 14.3283 25.9055 16.7664C25.6916 16.8704 25.4823 16.9744 25.2821 17.083C24.2672 17.6303 23.4754 18.4264 22.852 19.3582C20.1898 22.2124 18.7017 25.8219 19.3843 29.2008C19.3388 29.2053 19.2933 29.2099 19.2523 29.2144C17.5276 29.436 16.1988 29.8657 15.0111 31.173V31.1775C8.458 39.1294 19.2296 42.4811 28.5313 42.4133C28.6132 43.63 28.5995 44.8875 28.6587 46.05C29.2731 58.7287 29.6599 72.5201 35.2027 84.2716C35.7578 85.5969 36.2766 86.9177 36.6907 88.2747C36.7408 89.419 36.9228 90.6222 37.0639 91.7214C37.8557 97.2941 39.0571 105.834 39.849 111.303C40.2631 114.302 41.0913 117.617 43.2939 118.377C45.5192 119.092 48.5909 119.359 50.5659 117.332C52.0358 115.5 52.3225 112.813 52.7594 109.955C53.1507 107.2 53.574 104.224 53.9926 101.279C54.657 100.818 55.5126 100.288 57.5695 100.944C64.209 103.075 71.3628 104.622 78.562 104.305C79.8362 104.264 81.0695 104.237 82.3482 104.056C85.2562 103.78 89.2016 101.822 91.882 103.428C92.2233 103.636 92.46 103.984 92.6511 104.373C93.2518 107.544 93.898 110.941 94.3849 113.442C94.7854 115.6 95.5818 117.988 97.7115 118.535C99.864 119.051 102.827 119.241 104.733 117.784C106.153 116.464 106.431 114.532 106.854 112.474C107.486 109.15 108.206 105.377 108.847 102.003C108.943 101.433 109.043 100.899 109.143 100.402C110.959 98.8546 116.096 96.3758 127.064 106.264C148.065 125.203 130.604 92.0199 118.376 76.279L118.363 76.2654Z" fill="#A9D3A2" stroke="#A9D3A2" stroke-width="0.46218"/>
</svg>
