<svg width="152" height="136" viewBox="0 0 152 136" fill="none" xmlns="http://www.w3.org/2000/svg">
<rect width="152" height="136" fill="white"/>
<path d="M39.2594 72.9915C38.9167 72.5059 38.5029 72.0285 38.0417 71.5677C37.9093 71.4325 37.7825 71.3084 37.6627 71.2007C36.3794 70.0046 34.8161 68.9381 33.4395 68.1614L33.4172 68.1517C29.3195 66.0202 23.2571 68.2097 18.8863 68.2442C18.5352 68.2497 18.2105 68.1283 17.9681 67.8758C16.0244 65.7939 15.9088 61.3005 16.6946 58.6033C16.8103 58.0666 16.8688 57.5037 16.8409 56.9643C16.8075 55.666 16.1066 54.5237 14.822 54.1967C13.4914 53.7525 12.0688 54.1001 10.9513 54.8438C10.8859 54.8755 10.8218 54.9072 10.7605 54.9403C10.4497 55.1073 10.2073 55.3501 10.0164 55.6343C9.20133 56.5049 8.74572 57.6058 8.95472 58.6364C8.94078 58.6378 8.92685 58.6391 8.91431 58.6405C8.38624 58.7081 7.97939 58.8392 7.61574 59.2379V59.2393C5.60935 61.6647 8.90734 62.687 11.7553 62.6663C11.7804 63.0374 11.7762 63.421 11.7943 63.7755C11.9824 67.6427 12.1008 71.8492 13.7979 75.4335C13.9679 75.8377 14.1267 76.2406 14.2535 76.6544C14.2688 77.0035 14.3246 77.3705 14.3678 77.7057C14.6102 79.4054 14.978 82.0102 15.2205 83.6782C15.3473 84.5929 15.6009 85.6042 16.2752 85.8359C16.9566 86.0539 17.897 86.1353 18.5017 85.5172C18.9518 84.9585 19.0396 84.139 19.1733 83.267C19.2932 82.4268 19.4227 81.519 19.5509 80.6209C19.7543 80.4802 20.0163 80.3188 20.6461 80.5188C22.6789 81.1686 24.8692 81.6405 27.0735 81.5439C27.4636 81.5315 27.8412 81.5232 28.2327 81.468C29.123 81.3838 30.331 80.7865 31.1517 81.2762C31.2562 81.3397 31.3286 81.4459 31.3872 81.5646C31.5711 82.5317 31.7689 83.5678 31.918 84.3307C32.0406 84.9888 32.2845 85.7173 32.9365 85.8842C33.5956 86.0415 34.5026 86.0994 35.0864 85.6552C35.5212 85.2523 35.6061 84.6632 35.7357 84.0355C35.9294 83.0215 36.1495 81.8709 36.346 80.8416C36.3753 80.6678 36.4059 80.505 36.4366 80.3533C36.9925 79.8814 38.5656 79.1254 41.9235 82.1413C48.3536 87.9178 43.0075 77.7968 39.2636 72.9957L39.2594 72.9915Z" fill="#A9D3A2"/>
<path d="M54.8928 80.6667V66.1387H59.7471C61.1629 66.1387 62.427 66.4302 63.5395 67.0133C64.6519 67.5964 65.526 68.4356 66.1617 69.5307C66.7973 70.6116 67.1152 71.9129 67.1152 73.4347C67.1152 74.9849 66.7901 76.3004 66.14 77.3813C65.5043 78.448 64.6302 79.2658 63.5178 79.8347C62.4054 80.3893 61.1412 80.6667 59.7254 80.6667H54.8928ZM57.0599 79.1307L56.4097 78.6613H59.617C60.585 78.6613 61.4591 78.4764 62.2392 78.1067C63.0338 77.7227 63.6695 77.1467 64.1463 76.3787C64.623 75.6107 64.8614 74.6293 64.8614 73.4347C64.8614 72.2827 64.623 71.3156 64.1463 70.5333C63.6839 69.7369 63.0555 69.1396 62.2609 68.7413C61.4807 68.3431 60.6067 68.144 59.6387 68.144H56.258L57.0599 67.376V79.1307Z" fill="#A9D3A2"/>
<path d="M71.3564 80.6667H69.1893V70.256H71.3564V80.6667ZM68.8643 67.056C68.8643 66.6436 68.9871 66.3093 69.2327 66.0533C69.4927 65.7831 69.8394 65.648 70.2729 65.648C70.6918 65.648 71.0314 65.7831 71.2914 66.0533C71.5515 66.3093 71.6815 66.6436 71.6815 67.056C71.6815 67.4542 71.5515 67.7884 71.2914 68.0587C71.0314 68.3147 70.6918 68.4427 70.2729 68.4427C69.8394 68.4427 69.4927 68.3147 69.2327 68.0587C68.9871 67.7884 68.8643 67.4542 68.8643 67.056Z" fill="#A9D3A2"/>
<path d="M80.229 70.0427C80.9802 70.0427 81.5726 70.1707 82.006 70.4267C82.4394 70.6684 82.7572 71.0027 82.9595 71.4293C83.1618 71.8418 83.2918 72.3111 83.3496 72.8373C83.4074 73.3636 83.4363 73.904 83.4363 74.4587V80.6667H81.2692V74.0107C81.2692 73.2711 81.0958 72.7733 80.7491 72.5173C80.4168 72.2613 80.0195 72.1333 79.5572 72.1333C79.0949 72.1333 78.6253 72.2258 78.1486 72.4107C77.6718 72.5956 77.2456 72.8444 76.87 73.1573C76.4943 73.4702 76.2054 73.8187 76.0031 74.2027V73.008H76.3499V80.6667H74.1828V70.256H75.8298L76.2849 72.0907L75.7431 72.1547C76.1476 71.6996 76.5882 71.3156 77.065 71.0027C77.5418 70.6898 78.0474 70.4551 78.582 70.2987C79.1165 70.128 79.6655 70.0427 80.229 70.0427Z" fill="#A9D3A2"/>
<path d="M90.7805 80.88C89.7114 80.88 88.7651 80.6596 87.9416 80.2187C87.1326 79.7636 86.5041 79.1307 86.0562 78.32C85.6084 77.5093 85.3845 76.5636 85.3845 75.4827C85.3845 74.3876 85.6084 73.4347 86.0562 72.624C86.5041 71.8133 87.1326 71.1804 87.9416 70.7253C88.7651 70.2702 89.7114 70.0427 90.7805 70.0427C91.8641 70.0427 92.8104 70.2702 93.6194 70.7253C94.4284 71.1804 95.0569 71.8133 95.5048 72.624C95.9671 73.4347 96.1982 74.3876 96.1982 75.4827C96.1982 76.5636 95.9671 77.5093 95.5048 78.32C95.0569 79.1307 94.4284 79.7636 93.6194 80.2187C92.8104 80.6596 91.8641 80.88 90.7805 80.88ZM90.7805 78.832C91.7485 78.832 92.5214 78.5262 93.0993 77.9147C93.6916 77.2889 93.9878 76.4782 93.9878 75.4827C93.9878 74.4729 93.6916 73.6551 93.0993 73.0293C92.5214 72.4036 91.7485 72.0907 90.7805 72.0907C89.827 72.0907 89.0541 72.4036 88.4617 73.0293C87.8838 73.6409 87.5949 74.4516 87.5949 75.4613C87.5949 76.4711 87.8838 77.2889 88.4617 77.9147C89.0541 78.5262 89.827 78.832 90.7805 78.832Z" fill="#A9D3A2"/>
<path d="M104.646 80.88C103.158 80.88 101.85 80.56 100.723 79.92C99.6108 79.2658 98.744 78.3769 98.1227 77.2533C97.5015 76.1156 97.1909 74.8356 97.1909 73.4133C97.1909 72.3324 97.3787 71.3369 97.7543 70.4267C98.13 69.5164 98.65 68.7271 99.3146 68.0587C99.9936 67.3902 100.781 66.8711 101.677 66.5013C102.587 66.1316 103.577 65.9467 104.646 65.9467C106.322 65.9467 107.694 66.288 108.763 66.9707C109.832 67.6391 110.706 68.5422 111.385 69.68L109.262 70.2987C108.597 69.4027 107.882 68.7982 107.116 68.4853C106.365 68.1582 105.541 67.9947 104.646 67.9947C103.649 67.9947 102.753 68.2293 101.958 68.6987C101.178 69.168 100.557 69.808 100.095 70.6187C99.6325 71.4293 99.4013 72.3609 99.4013 73.4133C99.4013 74.4516 99.6325 75.3831 100.095 76.208C100.557 77.0187 101.178 77.6587 101.958 78.128C102.753 78.5973 103.649 78.832 104.646 78.832C105.541 78.832 106.365 78.6756 107.116 78.3627C107.882 78.0356 108.597 77.424 109.262 76.528L111.385 77.1467C110.706 78.2844 109.832 79.1947 108.763 79.8773C107.694 80.5458 106.322 80.88 104.646 80.88Z" fill="#A9D3A2"/>
<path d="M117.869 80.88C116.8 80.88 115.854 80.6596 115.03 80.2187C114.221 79.7636 113.593 79.1307 113.145 78.32C112.697 77.5093 112.473 76.5636 112.473 75.4827C112.473 74.3876 112.697 73.4347 113.145 72.624C113.593 71.8133 114.221 71.1804 115.03 70.7253C115.854 70.2702 116.8 70.0427 117.869 70.0427C118.953 70.0427 119.899 70.2702 120.708 70.7253C121.517 71.1804 122.146 71.8133 122.593 72.624C123.056 73.4347 123.287 74.3876 123.287 75.4827C123.287 76.5636 123.056 77.5093 122.593 78.32C122.146 79.1307 121.517 79.7636 120.708 80.2187C119.899 80.6596 118.953 80.88 117.869 80.88ZM117.869 78.832C118.837 78.832 119.61 78.5262 120.188 77.9147C120.78 77.2889 121.076 76.4782 121.076 75.4827C121.076 74.4729 120.78 73.6551 120.188 73.0293C119.61 72.4036 118.837 72.0907 117.869 72.0907C116.916 72.0907 116.143 72.4036 115.55 73.0293C114.973 73.6409 114.684 74.4516 114.684 75.4613C114.684 76.4711 114.973 77.2889 115.55 77.9147C116.143 78.5262 116.916 78.832 117.869 78.832Z" fill="#A9D3A2"/>
<path d="M129.242 80.88C128.274 80.88 127.422 80.6524 126.685 80.1973C125.948 79.7422 125.378 79.1093 124.973 78.2987C124.568 77.4738 124.366 76.5209 124.366 75.44C124.366 74.3591 124.568 73.4133 124.973 72.6027C125.378 71.792 125.948 71.1662 126.685 70.7253C127.422 70.2702 128.274 70.0427 129.242 70.0427C130.196 70.0427 131.026 70.2702 131.734 70.7253C132.442 71.1662 132.991 71.792 133.381 72.6027C133.786 73.4133 133.988 74.3591 133.988 75.44C133.988 76.5209 133.786 77.4738 133.381 78.2987C132.991 79.1093 132.442 79.7422 131.734 80.1973C131.026 80.6524 130.196 80.88 129.242 80.88ZM129.567 79.0453C130.463 79.0453 131.178 78.7182 131.713 78.064C132.262 77.4098 132.536 76.5422 132.536 75.4613C132.536 74.3804 132.262 73.5129 131.713 72.8587C131.178 72.2044 130.463 71.8773 129.567 71.8773C128.672 71.8773 127.949 72.2044 127.4 72.8587C126.851 73.5129 126.577 74.3733 126.577 75.44C126.577 76.5209 126.851 77.3956 127.4 78.064C127.949 78.7182 128.672 79.0453 129.567 79.0453ZM132.948 80.6667L132.428 78.576H132.645V72.6453H132.428V66.1387H134.595V80.6667H132.948Z" fill="#A9D3A2"/>
<path d="M141.799 80.88C140.773 80.88 139.87 80.6596 139.09 80.2187C138.31 79.7636 137.703 79.1307 137.27 78.32C136.836 77.5093 136.62 76.5636 136.62 75.4827C136.62 74.3876 136.836 73.4347 137.27 72.624C137.703 71.8133 138.31 71.1804 139.09 70.7253C139.87 70.2702 140.773 70.0427 141.799 70.0427C142.839 70.0427 143.749 70.2702 144.53 70.7253C145.31 71.1804 145.916 71.8133 146.35 72.624C146.783 73.4347 147 74.3876 147 75.4827C147 75.5822 146.993 75.6889 146.978 75.8027C146.978 75.9022 146.971 75.9947 146.957 76.08H138.678V74.2453H145.396L144.79 75.4827C144.79 74.4018 144.544 73.5129 144.053 72.816C143.562 72.1191 142.81 71.7707 141.799 71.7707C140.903 71.7707 140.188 72.0551 139.654 72.624C139.119 73.1787 138.852 73.9111 138.852 74.8213V75.9307C138.852 76.8836 139.112 77.6444 139.632 78.2133C140.152 78.768 140.874 79.0453 141.799 79.0453C142.651 79.0453 143.309 78.8676 143.771 78.512C144.233 78.1564 144.638 77.7156 144.985 77.1893L146.61 78.192C146.119 79.088 145.483 79.7636 144.703 80.2187C143.937 80.6596 142.969 80.88 141.799 80.88Z" fill="#A9D3A2"/>
<path d="M48.9874 62V86M39.2594 72.9915C38.9167 72.5059 38.5029 72.0285 38.0417 71.5677C37.9093 71.4325 37.7825 71.3084 37.6627 71.2007C36.3794 70.0046 34.8161 68.9381 33.4395 68.1614L33.4172 68.1517C29.3195 66.0202 23.2571 68.2097 18.8863 68.2442C18.5352 68.2497 18.2105 68.1283 17.9681 67.8758C16.0244 65.7939 15.9088 61.3005 16.6946 58.6033C16.8103 58.0666 16.8688 57.5037 16.8409 56.9643C16.8075 55.666 16.1066 54.5237 14.822 54.1967C13.4914 53.7525 12.0688 54.1001 10.9513 54.8438C10.8859 54.8755 10.8218 54.9072 10.7605 54.9403C10.4497 55.1073 10.2073 55.3501 10.0164 55.6343C9.20133 56.5049 8.74572 57.6058 8.95472 58.6364C8.94078 58.6378 8.92685 58.6391 8.91431 58.6405C8.38624 58.7081 7.97939 58.8392 7.61574 59.2379V59.2393C5.60935 61.6647 8.90734 62.687 11.7553 62.6663C11.7804 63.0374 11.7762 63.421 11.7943 63.7755C11.9824 67.6427 12.1008 71.8492 13.7979 75.4335C13.9679 75.8377 14.1267 76.2406 14.2535 76.6544C14.2688 77.0035 14.3246 77.3705 14.3678 77.7057C14.6102 79.4054 14.978 82.0102 15.2205 83.6782C15.3473 84.5929 15.6009 85.6042 16.2752 85.8359C16.9566 86.0539 17.897 86.1353 18.5017 85.5172C18.9518 84.9585 19.0396 84.139 19.1733 83.267C19.2932 82.4268 19.4227 81.519 19.5509 80.6209C19.7543 80.4802 20.0163 80.3188 20.6461 80.5188C22.6789 81.1686 24.8692 81.6405 27.0735 81.5439C27.4636 81.5315 27.8412 81.5232 28.2327 81.468C29.123 81.3838 30.331 80.7865 31.1517 81.2762C31.2562 81.3397 31.3286 81.4459 31.3872 81.5646C31.5711 82.5317 31.7689 83.5678 31.918 84.3307C32.0406 84.9888 32.2845 85.7173 32.9365 85.8842C33.5956 86.0415 34.5026 86.0994 35.0864 85.6552C35.5212 85.2523 35.6061 84.6632 35.7357 84.0355C35.9294 83.0215 36.1495 81.8709 36.346 80.8416C36.3753 80.6678 36.4059 80.505 36.4366 80.3533C36.9925 79.8814 38.5656 79.1254 41.9235 82.1413C48.3536 87.9178 43.0075 77.7968 39.2636 72.9957L39.2594 72.9915ZM54.8928 80.6667V66.1387H59.7471C61.1629 66.1387 62.427 66.4302 63.5395 67.0133C64.6519 67.5964 65.526 68.4356 66.1617 69.5307C66.7973 70.6116 67.1152 71.9129 67.1152 73.4347C67.1152 74.9849 66.7901 76.3004 66.14 77.3813C65.5043 78.448 64.6302 79.2658 63.5178 79.8347C62.4054 80.3893 61.1412 80.6667 59.7254 80.6667H54.8928ZM57.0599 79.1307L56.4097 78.6613H59.617C60.585 78.6613 61.4591 78.4764 62.2392 78.1067C63.0338 77.7227 63.6695 77.1467 64.1463 76.3787C64.623 75.6107 64.8614 74.6293 64.8614 73.4347C64.8614 72.2827 64.623 71.3156 64.1463 70.5333C63.6839 69.7369 63.0555 69.1396 62.2609 68.7413C61.4807 68.3431 60.6067 68.144 59.6387 68.144H56.258L57.0599 67.376V79.1307ZM71.3564 80.6667H69.1893V70.256H71.3564V80.6667ZM68.8643 67.056C68.8643 66.6436 68.9871 66.3093 69.2327 66.0533C69.4927 65.7831 69.8394 65.648 70.2729 65.648C70.6918 65.648 71.0314 65.7831 71.2914 66.0533C71.5515 66.3093 71.6815 66.6436 71.6815 67.056C71.6815 67.4542 71.5515 67.7884 71.2914 68.0587C71.0314 68.3147 70.6918 68.4427 70.2729 68.4427C69.8394 68.4427 69.4927 68.3147 69.2327 68.0587C68.9871 67.7884 68.8643 67.4542 68.8643 67.056ZM80.229 70.0427C80.9802 70.0427 81.5726 70.1707 82.006 70.4267C82.4394 70.6684 82.7572 71.0027 82.9595 71.4293C83.1618 71.8418 83.2918 72.3111 83.3496 72.8373C83.4074 73.3636 83.4363 73.904 83.4363 74.4587V80.6667H81.2692V74.0107C81.2692 73.2711 81.0958 72.7733 80.7491 72.5173C80.4168 72.2613 80.0195 72.1333 79.5572 72.1333C79.0949 72.1333 78.6253 72.2258 78.1486 72.4107C77.6718 72.5956 77.2456 72.8444 76.87 73.1573C76.4943 73.4702 76.2054 73.8187 76.0031 74.2027V73.008H76.3499V80.6667H74.1828V70.256H75.8298L76.2849 72.0907L75.7431 72.1547C76.1476 71.6996 76.5882 71.3156 77.065 71.0027C77.5418 70.6898 78.0474 70.4551 78.582 70.2987C79.1165 70.128 79.6655 70.0427 80.229 70.0427ZM90.7805 80.88C89.7114 80.88 88.7651 80.6596 87.9416 80.2187C87.1326 79.7636 86.5041 79.1307 86.0562 78.32C85.6084 77.5093 85.3845 76.5636 85.3845 75.4827C85.3845 74.3876 85.6084 73.4347 86.0562 72.624C86.5041 71.8133 87.1326 71.1804 87.9416 70.7253C88.7651 70.2702 89.7114 70.0427 90.7805 70.0427C91.8641 70.0427 92.8104 70.2702 93.6194 70.7253C94.4284 71.1804 95.0569 71.8133 95.5048 72.624C95.9671 73.4347 96.1982 74.3876 96.1982 75.4827C96.1982 76.5636 95.9671 77.5093 95.5048 78.32C95.0569 79.1307 94.4284 79.7636 93.6194 80.2187C92.8104 80.6596 91.8641 80.88 90.7805 80.88ZM90.7805 78.832C91.7485 78.832 92.5214 78.5262 93.0993 77.9147C93.6916 77.2889 93.9878 76.4782 93.9878 75.4827C93.9878 74.4729 93.6916 73.6551 93.0993 73.0293C92.5214 72.4036 91.7485 72.0907 90.7805 72.0907C89.827 72.0907 89.0541 72.4036 88.4617 73.0293C87.8838 73.6409 87.5949 74.4516 87.5949 75.4613C87.5949 76.4711 87.8838 77.2889 88.4617 77.9147C89.0541 78.5262 89.827 78.832 90.7805 78.832ZM104.646 80.88C103.158 80.88 101.85 80.56 100.723 79.92C99.6108 79.2658 98.744 78.3769 98.1227 77.2533C97.5015 76.1156 97.1909 74.8356 97.1909 73.4133C97.1909 72.3324 97.3787 71.3369 97.7543 70.4267C98.13 69.5164 98.65 68.7271 99.3146 68.0587C99.9936 67.3902 100.781 66.8711 101.677 66.5013C102.587 66.1316 103.577 65.9467 104.646 65.9467C106.322 65.9467 107.694 66.288 108.763 66.9707C109.832 67.6391 110.706 68.5422 111.385 69.68L109.262 70.2987C108.597 69.4027 107.882 68.7982 107.116 68.4853C106.365 68.1582 105.541 67.9947 104.646 67.9947C103.649 67.9947 102.753 68.2293 101.958 68.6987C101.178 69.168 100.557 69.808 100.095 70.6187C99.6325 71.4293 99.4013 72.3609 99.4013 73.4133C99.4013 74.4516 99.6325 75.3831 100.095 76.208C100.557 77.0187 101.178 77.6587 101.958 78.128C102.753 78.5973 103.649 78.832 104.646 78.832C105.541 78.832 106.365 78.6756 107.116 78.3627C107.882 78.0356 108.597 77.424 109.262 76.528L111.385 77.1467C110.706 78.2844 109.832 79.1947 108.763 79.8773C107.694 80.5458 106.322 80.88 104.646 80.88ZM117.869 80.88C116.8 80.88 115.854 80.6596 115.03 80.2187C114.221 79.7636 113.593 79.1307 113.145 78.32C112.697 77.5093 112.473 76.5636 112.473 75.4827C112.473 74.3876 112.697 73.4347 113.145 72.624C113.593 71.8133 114.221 71.1804 115.03 70.7253C115.854 70.2702 116.8 70.0427 117.869 70.0427C118.953 70.0427 119.899 70.2702 120.708 70.7253C121.517 71.1804 122.146 71.8133 122.593 72.624C123.056 73.4347 123.287 74.3876 123.287 75.4827C123.287 76.5636 123.056 77.5093 122.593 78.32C122.146 79.1307 121.517 79.7636 120.708 80.2187C119.899 80.6596 118.953 80.88 117.869 80.88ZM117.869 78.832C118.837 78.832 119.61 78.5262 120.188 77.9147C120.78 77.2889 121.076 76.4782 121.076 75.4827C121.076 74.4729 120.78 73.6551 120.188 73.0293C119.61 72.4036 118.837 72.0907 117.869 72.0907C116.916 72.0907 116.143 72.4036 115.55 73.0293C114.973 73.6409 114.684 74.4516 114.684 75.4613C114.684 76.4711 114.973 77.2889 115.55 77.9147C116.143 78.5262 116.916 78.832 117.869 78.832ZM129.242 80.88C128.274 80.88 127.422 80.6524 126.685 80.1973C125.948 79.7422 125.378 79.1093 124.973 78.2987C124.568 77.4738 124.366 76.5209 124.366 75.44C124.366 74.3591 124.568 73.4133 124.973 72.6027C125.378 71.792 125.948 71.1662 126.685 70.7253C127.422 70.2702 128.274 70.0427 129.242 70.0427C130.196 70.0427 131.026 70.2702 131.734 70.7253C132.442 71.1662 132.991 71.792 133.381 72.6027C133.786 73.4133 133.988 74.3591 133.988 75.44C133.988 76.5209 133.786 77.4738 133.381 78.2987C132.991 79.1093 132.442 79.7422 131.734 80.1973C131.026 80.6524 130.196 80.88 129.242 80.88ZM129.567 79.0453C130.463 79.0453 131.178 78.7182 131.713 78.064C132.262 77.4098 132.536 76.5422 132.536 75.4613C132.536 74.3804 132.262 73.5129 131.713 72.8587C131.178 72.2044 130.463 71.8773 129.567 71.8773C128.672 71.8773 127.949 72.2044 127.4 72.8587C126.851 73.5129 126.577 74.3733 126.577 75.44C126.577 76.5209 126.851 77.3956 127.4 78.064C127.949 78.7182 128.672 79.0453 129.567 79.0453ZM132.948 80.6667L132.428 78.576H132.645V72.6453H132.428V66.1387H134.595V80.6667H132.948ZM141.799 80.88C140.773 80.88 139.87 80.6596 139.09 80.2187C138.31 79.7636 137.703 79.1307 137.27 78.32C136.836 77.5093 136.62 76.5636 136.62 75.4827C136.62 74.3876 136.836 73.4347 137.27 72.624C137.703 71.8133 138.31 71.1804 139.09 70.7253C139.87 70.2702 140.773 70.0427 141.799 70.0427C142.839 70.0427 143.749 70.2702 144.53 70.7253C145.31 71.1804 145.916 71.8133 146.35 72.624C146.783 73.4347 147 74.3876 147 75.4827C147 75.5822 146.993 75.6889 146.978 75.8027C146.978 75.9022 146.971 75.9947 146.957 76.08H138.678V74.2453H145.396L144.79 75.4827C144.79 74.4018 144.544 73.5129 144.053 72.816C143.562 72.1191 142.81 71.7707 141.799 71.7707C140.903 71.7707 140.188 72.0551 139.654 72.624C139.119 73.1787 138.852 73.9111 138.852 74.8213V75.9307C138.852 76.8836 139.112 77.6444 139.632 78.2133C140.152 78.768 140.874 79.0453 141.799 79.0453C142.651 79.0453 143.309 78.8676 143.771 78.512C144.233 78.1564 144.638 77.7156 144.985 77.1893L146.61 78.192C146.119 79.088 145.483 79.7636 144.703 80.2187C143.937 80.6596 142.969 80.88 141.799 80.88Z" stroke="#A9D3A2" stroke-linecap="round"/>
</svg>
