<svg width="294" height="263" viewBox="0 0 294 263" fill="none" xmlns="http://www.w3.org/2000/svg">
<rect width="294" height="263" fill="white"/>
<path d="M240.969 152.721C238.547 149.276 235.622 145.89 232.363 142.621C231.428 141.662 230.532 140.781 229.685 140.018C220.617 131.533 209.569 123.967 199.841 118.457L199.684 118.389C170.726 103.268 127.885 118.8 96.9974 119.045C94.5162 119.084 92.222 118.223 90.5087 116.432C76.7732 101.663 75.956 69.7877 81.5093 50.6545C82.3265 46.8474 82.7401 42.8544 82.5431 39.0278C82.3068 29.8184 77.3542 21.7149 68.2759 19.3955C58.8728 16.2441 48.8198 18.7104 40.9231 23.9855C40.4603 24.2106 40.0074 24.4357 39.5742 24.6706C37.3785 25.8548 35.6652 27.5772 34.3163 29.5933C28.5562 35.7688 25.3365 43.5786 26.8135 50.8894C26.715 50.8992 26.6165 50.909 26.5279 50.9188C22.7962 51.3983 19.9211 52.328 17.3512 55.1564V55.1662C3.17267 72.3714 26.4787 79.6234 46.6044 79.4766C46.7816 82.1093 46.7521 84.83 46.8801 87.3452C48.2093 114.778 49.0463 144.618 61.039 170.044C62.2402 172.911 63.3627 175.769 64.2587 178.705C64.367 181.181 64.7608 183.784 65.0661 186.163C66.7793 198.22 69.3787 216.697 71.092 228.53C71.988 235.018 73.78 242.192 78.5456 243.836C83.3604 245.382 90.0066 245.96 94.2798 241.575C97.4602 237.612 98.0805 231.798 99.0257 225.613C99.8725 219.653 100.788 213.213 101.694 206.842C103.132 205.844 104.983 204.699 109.433 206.118C123.799 210.727 139.277 214.074 154.854 213.389C157.611 213.301 160.279 213.243 163.046 212.851C169.338 212.254 177.874 208.016 183.674 211.491C184.412 211.941 184.924 212.695 185.338 213.536C186.637 220.397 188.036 227.747 189.089 233.159C189.956 237.827 191.679 242.994 196.287 244.179C200.944 245.294 207.354 245.705 211.48 242.554C214.552 239.696 215.152 235.517 216.068 231.064C217.437 223.871 218.992 215.709 220.381 208.408C220.587 207.175 220.804 206.02 221.021 204.943C224.949 201.596 236.066 196.233 259.795 217.627C305.235 258.604 267.455 186.808 240.999 152.75L240.969 152.721Z" fill="#A9D3A2" stroke="#A9D3A2"/>
</svg>
