<svg width="152" height="132" viewBox="0 0 152 132" fill="none" xmlns="http://www.w3.org/2000/svg">
<rect y="0.582275" width="152" height="130.835" fill="white"/>
<path d="M95.5013 64.4749C95.004 63.753 94.4036 63.0435 93.7345 62.3587C93.5424 62.1577 93.3585 61.9731 93.1846 61.8132C91.3228 60.0354 89.0547 58.4503 87.0574 57.2958L87.0251 57.2814C81.0798 54.1133 72.2841 57.3675 65.9426 57.4188C65.4332 57.427 64.9622 57.2466 64.6104 56.8713C61.7904 53.777 61.6226 47.0983 62.7627 43.0894C62.9305 42.2917 63.0154 41.4551 62.975 40.6533C62.9265 38.7237 61.9097 37.0258 60.0458 36.5398C58.1153 35.8795 56.0513 36.3963 54.43 37.5015C54.335 37.5487 54.242 37.5959 54.1531 37.6451C53.7023 37.8932 53.3505 38.2541 53.0736 38.6765C51.891 39.9704 51.2299 41.6068 51.5332 43.1386C51.513 43.1406 51.4927 43.1427 51.4746 43.1447C50.7084 43.2452 50.1181 43.44 49.5905 44.0326V44.0347C46.6795 47.6396 51.4644 49.1591 55.5964 49.1283C55.6328 49.6799 55.6268 50.25 55.653 50.777C55.9259 56.5248 56.0978 62.777 58.56 68.1044C58.8066 68.7052 59.0371 69.304 59.221 69.9191C59.2433 70.4379 59.3241 70.9834 59.3868 71.4817C59.7385 74.008 60.2722 77.8795 60.624 80.3586C60.8079 81.7182 61.1758 83.2212 62.1543 83.5657C63.1428 83.8897 64.5073 84.0107 65.3846 83.0921C66.0376 82.2616 66.165 81.0435 66.359 79.7476C66.5329 78.4988 66.7209 77.1495 66.9069 75.8146C67.202 75.6054 67.582 75.3655 68.4958 75.6628C71.4452 76.6286 74.623 77.3299 77.8211 77.1864C78.3871 77.1679 78.9349 77.1556 79.503 77.0736C80.7947 76.9485 82.5474 76.0606 83.7381 76.7886C83.8897 76.8829 83.9948 77.0408 84.0797 77.2171C84.3465 78.6546 84.6336 80.1946 84.8499 81.3286C85.0278 82.3067 85.3816 83.3894 86.3276 83.6375C87.2838 83.8713 88.5998 83.9574 89.4468 83.2971C90.0776 82.6983 90.2009 81.8227 90.3889 80.8897C90.6699 79.3826 90.9893 77.6724 91.2743 76.1426C91.3167 75.8843 91.3612 75.6423 91.4057 75.4167C92.2123 74.7154 94.4946 73.5917 99.3665 78.0743C108.696 86.6601 100.939 71.617 95.5074 64.481L95.5013 64.4749Z" fill="#A9D3A2"/>
<path d="M30.2276 36.2474L8.32709 58.1479C7.18055 59.2944 7.18055 61.1533 8.32709 62.2999L30.2276 84.2003" stroke="#A8D3A2" stroke-width="5.87178" stroke-linecap="round"/>
<path d="M121.257 36.2474L143.157 58.1479C144.304 59.2944 144.304 61.1533 143.157 62.2999L121.257 84.2003" stroke="#A8D3A2" stroke-width="5.87178" stroke-linecap="round"/>
<path d="M5.79761 115.191V92.9539H13.112C15.2454 92.9539 17.1502 93.4002 18.8265 94.2927C20.5027 95.1853 21.8197 96.4696 22.7776 98.1459C23.7354 99.8003 24.2143 101.792 24.2143 104.122C24.2143 106.494 23.7245 108.508 22.7449 110.162C21.7871 111.795 20.47 113.047 18.7938 113.918C17.1176 114.767 15.2128 115.191 13.0794 115.191H5.79761ZM9.06298 112.84L8.08337 112.122H12.9161C14.3747 112.122 15.6917 111.839 16.8672 111.273C18.0645 110.685 19.0224 109.803 19.7408 108.628C20.4591 107.452 20.8183 105.95 20.8183 104.122C20.8183 102.358 20.4591 100.878 19.7408 99.6806C19.0441 98.4615 18.0972 97.5472 16.8999 96.9377C15.7243 96.3281 14.4073 96.0234 12.9488 96.0234H7.85479L9.06298 94.8478V112.84Z" fill="#A9D3A2"/>
<path d="M30.605 115.191H27.3396V99.2561H30.605V115.191ZM26.8498 94.358C26.8498 93.7267 27.0349 93.2151 27.405 92.8233C27.7968 92.4097 28.3193 92.2029 28.9723 92.2029C29.6036 92.2029 30.1152 92.4097 30.5071 92.8233C30.8989 93.2151 31.0948 93.7267 31.0948 94.358C31.0948 94.9676 30.8989 95.4791 30.5071 95.8928C30.1152 96.2846 29.6036 96.4805 28.9723 96.4805C28.3193 96.4805 27.7968 96.2846 27.405 95.8928C27.0349 95.4791 26.8498 94.9676 26.8498 94.358Z" fill="#A9D3A2"/>
<path d="M43.9742 98.9296C45.1062 98.9296 45.9987 99.1255 46.6518 99.5173C47.3049 99.8874 47.7838 100.399 48.0886 101.052C48.3933 101.683 48.5892 102.402 48.6763 103.207C48.7634 104.013 48.8069 104.84 48.8069 105.689V115.191H45.5416V105.003C45.5416 103.871 45.2803 103.109 44.7579 102.717C44.2572 102.326 43.6585 102.13 42.9619 102.13C42.2653 102.13 41.5578 102.271 40.8394 102.554C40.121 102.837 39.4788 103.218 38.9128 103.697C38.3469 104.176 37.9115 104.709 37.6067 105.297V103.468H38.1292V115.191H34.8638V99.2561H37.3455L38.0312 102.064L37.2149 102.162C37.8244 101.466 38.4884 100.878 39.2067 100.399C39.9251 99.9201 40.687 99.5609 41.4925 99.3214C42.298 99.0602 43.1252 98.9296 43.9742 98.9296Z" fill="#A9D3A2"/>
<path d="M59.8732 115.518C58.2623 115.518 56.8364 115.18 55.5956 114.505C54.3765 113.809 53.4296 112.84 52.7547 111.599C52.0799 110.358 51.7425 108.911 51.7425 107.256C51.7425 105.58 52.0799 104.122 52.7547 102.881C53.4296 101.64 54.3765 100.671 55.5956 99.9745C56.8364 99.2779 58.2623 98.9296 59.8732 98.9296C61.5059 98.9296 62.9318 99.2779 64.1509 99.9745C65.37 100.671 66.3169 101.64 66.9918 102.881C67.6884 104.122 68.0367 105.58 68.0367 107.256C68.0367 108.911 67.6884 110.358 66.9918 111.599C66.3169 112.84 65.37 113.809 64.1509 114.505C62.9318 115.18 61.5059 115.518 59.8732 115.518ZM59.8732 112.383C61.3318 112.383 62.4964 111.915 63.3672 110.979C64.2597 110.021 64.706 108.78 64.706 107.256C64.706 105.711 64.2597 104.459 63.3672 103.501C62.4964 102.543 61.3318 102.064 59.8732 102.064C58.4365 102.064 57.2718 102.543 56.3793 103.501C55.5085 104.437 55.0731 105.678 55.0731 107.224C55.0731 108.769 55.5085 110.021 56.3793 110.979C57.2718 111.915 58.4365 112.383 59.8732 112.383Z" fill="#A9D3A2"/>
<path d="M80.7653 115.518C78.523 115.518 76.5529 115.028 74.8549 114.048C73.1787 113.047 71.8726 111.686 70.9365 109.967C70.0004 108.225 69.5324 106.266 69.5324 104.089C69.5324 102.434 69.8154 100.911 70.3814 99.5173C70.9474 98.1241 71.7311 96.9159 72.7324 95.8928C73.7556 94.8696 74.942 94.075 76.2917 93.509C77.6632 92.943 79.1543 92.66 80.7653 92.66C83.2905 92.66 85.3586 93.1825 86.9695 94.2274C88.5804 95.2506 89.8974 96.6329 90.9206 98.3744L87.7205 99.3214C86.7191 97.9499 85.6416 97.0248 84.4878 96.5458C83.3558 96.0451 82.115 95.7948 80.7653 95.7948C79.2632 95.7948 77.9135 96.154 76.7162 96.8724C75.5407 97.5908 74.6046 98.5704 73.908 99.8112C73.2114 101.052 72.8631 102.478 72.8631 104.089C72.8631 105.678 73.2114 107.104 73.908 108.366C74.6046 109.607 75.5407 110.587 76.7162 111.305C77.9135 112.024 79.2632 112.383 80.7653 112.383C82.115 112.383 83.3558 112.143 84.4878 111.665C85.6416 111.164 86.7191 110.228 87.7205 108.856L90.9206 109.803C89.8974 111.545 88.5804 112.938 86.9695 113.983C85.3586 115.006 83.2905 115.518 80.7653 115.518Z" fill="#A9D3A2"/>
<path d="M100.69 115.518C99.0795 115.518 97.6536 115.18 96.4128 114.505C95.1937 113.809 94.2468 112.84 93.5719 111.599C92.8971 110.358 92.5597 108.911 92.5597 107.256C92.5597 105.58 92.8971 104.122 93.5719 102.881C94.2468 101.64 95.1937 100.671 96.4128 99.9745C97.6536 99.2779 99.0795 98.9296 100.69 98.9296C102.323 98.9296 103.749 99.2779 104.968 99.9745C106.187 100.671 107.134 101.64 107.809 102.881C108.506 104.122 108.854 105.58 108.854 107.256C108.854 108.911 108.506 110.358 107.809 111.599C107.134 112.84 106.187 113.809 104.968 114.505C103.749 115.18 102.323 115.518 100.69 115.518ZM100.69 112.383C102.149 112.383 103.314 111.915 104.184 110.979C105.077 110.021 105.523 108.78 105.523 107.256C105.523 105.711 105.077 104.459 104.184 103.501C103.314 102.543 102.149 102.064 100.69 102.064C99.2537 102.064 98.089 102.543 97.1965 103.501C96.3257 104.437 95.8903 105.678 95.8903 107.224C95.8903 108.769 96.3257 110.021 97.1965 110.979C98.089 111.915 99.2537 112.383 100.69 112.383Z" fill="#A9D3A2"/>
<path d="M117.827 115.518C116.369 115.518 115.084 115.169 113.974 114.473C112.864 113.776 112.004 112.807 111.394 111.567C110.785 110.304 110.48 108.845 110.48 107.191C110.48 105.536 110.785 104.089 111.394 102.848C112.004 101.607 112.864 100.649 113.974 99.9745C115.084 99.2779 116.369 98.9296 117.827 98.9296C119.264 98.9296 120.516 99.2779 121.582 99.9745C122.649 100.649 123.476 101.607 124.064 102.848C124.674 104.089 124.978 105.536 124.978 107.191C124.978 108.845 124.674 110.304 124.064 111.567C123.476 112.807 122.649 113.776 121.582 114.473C120.516 115.169 119.264 115.518 117.827 115.518ZM118.317 112.709C119.667 112.709 120.744 112.209 121.55 111.207C122.377 110.206 122.791 108.878 122.791 107.224C122.791 105.569 122.377 104.241 121.55 103.24C120.744 102.238 119.667 101.738 118.317 101.738C116.967 101.738 115.879 102.238 115.052 103.24C114.224 104.241 113.811 105.558 113.811 107.191C113.811 108.845 114.224 110.184 115.052 111.207C115.879 112.209 116.967 112.709 118.317 112.709ZM123.411 115.191L122.627 111.991H122.954V102.913H122.627V92.9539H125.893V115.191H123.411Z" fill="#A9D3A2"/>
<path d="M136.748 115.518C135.202 115.518 133.842 115.18 132.666 114.505C131.491 113.809 130.576 112.84 129.923 111.599C129.27 110.358 128.944 108.911 128.944 107.256C128.944 105.58 129.27 104.122 129.923 102.881C130.576 101.64 131.491 100.671 132.666 99.9745C133.842 99.2779 135.202 98.9296 136.748 98.9296C138.315 98.9296 139.687 99.2779 140.862 99.9745C142.038 100.671 142.952 101.64 143.605 102.881C144.258 104.122 144.585 105.58 144.585 107.256C144.585 107.409 144.574 107.572 144.552 107.746C144.552 107.898 144.541 108.04 144.519 108.171H132.046V105.362H142.168L141.254 107.256C141.254 105.602 140.884 104.241 140.144 103.175C139.404 102.108 138.272 101.575 136.748 101.575C135.398 101.575 134.321 102.01 133.515 102.881C132.71 103.73 132.307 104.851 132.307 106.244V107.942C132.307 109.401 132.699 110.565 133.482 111.436C134.266 112.285 135.355 112.709 136.748 112.709C138.032 112.709 139.023 112.437 139.719 111.893C140.416 111.349 141.025 110.674 141.548 109.869L143.997 111.403C143.257 112.775 142.299 113.809 141.123 114.505C139.97 115.18 138.511 115.518 136.748 115.518Z" fill="#A9D3A2"/>
</svg>
